M48
; DRILL file {KiCad 5.1.9-73d0e3b20d~88~ubuntu20.04.1} date Thu Apr 22 17:18:49 2021
; FORMAT={-:-/ absolute / inch / decimal}
; #@! TF.CreationDate,2021-04-22T17:18:49+01:00
; #@! TF.GenerationSoftware,Kicad,Pcbnew,5.1.9-73d0e3b20d~88~ubuntu20.04.1
FMAT,2
INCH
T1C0.0118
T2C0.0157
T3C0.0236
T4C0.0256
T5C0.0276
T6C0.0335
T7C0.0394
T8C0.0382
T9C0.0701
T10C0.1063
%
G90
G05
T1
X4.0512Y-4.4724
X4.2165Y-4.2717
X4.2913Y-4.2028
X4.3504Y-4.2638
X4.3504Y-4.2953
X4.5177Y-4.2539
X4.5689Y-4.252
X4.6693Y-4.0433
X4.7992Y-4.3976
X4.9626Y-4.0591
X4.9961Y-4.3701
X5.0945Y-4.3415
X5.1929Y-4.3415
X5.2362Y-4.1575
X5.315Y-4.3386
X5.7205Y-4.0453
X6.0925Y-4.6299
X6.1309Y-4.6063
T2
X6.111Y-4.3366
X6.1112Y-4.2283
X6.1112Y-4.3041
T4
X4.4185Y-4.4764
X4.4685Y-4.4764
X4.5185Y-4.4764
T5
X4.7008Y-4.4764
X4.7992Y-4.4764
X4.8976Y-4.4764
X4.9961Y-4.4764
X5.0945Y-4.4764
X5.1929Y-4.4764
T6
X4.2815Y-4.1029
X4.4783Y-4.1029
T7
X5.4724Y-4.252
X5.5709Y-4.252
T8
X5.9539Y-4.2685
X5.9539Y-4.3685
X5.9539Y-4.4685
X5.9539Y-4.5685
X5.9539Y-4.6685
X6.0539Y-4.2685
X6.0539Y-4.3685
X6.0539Y-4.4685
X6.0539Y-4.5685
X6.0539Y-4.6685
T9
X6.0039Y-4.3185
X6.0039Y-4.6185
T10
X4.0748Y-4.0748
X6.0039Y-4.0748
T3
G00X4.2421Y-4.0103
M15
G01X4.2421Y-3.9828
M16
G05
G00X4.5177Y-3.9828
M15
G01X4.5177Y-4.0103
M16
G05
T0
M30
